<?xml version="1.0" encoding="UTF-8" standalone="no"?>
<svg
   xmlns:dc="http://purl.org/dc/elements/1.1/"
   xmlns:cc="http://creativecommons.org/ns#"
   xmlns:rdf="http://www.w3.org/1999/02/22-rdf-syntax-ns#"
   xmlns:svg="http://www.w3.org/2000/svg"
   xmlns="http://www.w3.org/2000/svg"
   xmlns:sodipodi="http://sodipodi.sourceforge.net/DTD/sodipodi-0.dtd"
   xmlns:inkscape="http://www.inkscape.org/namespaces/inkscape"
   viewBox="0 0 34 38"
   width="34"
   height="38"
   version="1.1"
   id="svg10"
   sodipodi:docname="CSS3.svg"
   inkscape:version="1.0.2-2 (e86c870879, 2021-01-15)">
  <metadata
     id="metadata16">
    <rdf:RDF>
      <cc:Work
         rdf:about="">
        <dc:format>image/svg+xml</dc:format>
        <dc:type
           rdf:resource="http://purl.org/dc/dcmitype/StillImage" />
      </cc:Work>
    </rdf:RDF>
  </metadata>
  <defs
     id="defs14" />
  <sodipodi:namedview
     pagecolor="#ffffff"
     bordercolor="#666666"
     borderopacity="1"
     objecttolerance="10"
     gridtolerance="10"
     guidetolerance="10"
     inkscape:pageopacity="0"
     inkscape:pageshadow="2"
     inkscape:window-width="1366"
     inkscape:window-height="705"
     id="namedview12"
     showgrid="false"
     inkscape:zoom="10.746341"
     inkscape:cx="24"
     inkscape:cy="24"
     inkscape:window-x="-8"
     inkscape:window-y="-8"
     inkscape:window-maximized="1"
     inkscape:current-layer="svg10" />
  <path
     fill="#0277bd"
     d="M 34,0 H 0 l 3,34 14,4 14,-4 z"
     id="path2" />
  <path
     fill="#039be5"
     d="M 17,3 V 34.9 L 28.2,31.7 30.7,3 Z"
     id="path4" />
  <path
     fill="#ffffff"
     d="M 26.1,8 H 17 v 4 h 4.9 l -0.3,4 H 17 v 4 h 4.4 l -0.3,4.5 -4.1,1.4 v 4.2 L 24.9,27.5 25.6,16 v 0 z"
     id="path6" />
  <path
     fill="#eeeeee"
     d="m 17,8 v 4 H 8.1 L 7.8,8 Z m -4.6,8 0.2,4 H 17 v -4 z m 0.4,6 h -4 l 0.3,5.5 7.9,2.6 v -4.2 l -4.1,-1.4 z"
     id="path8" />
</svg>
