<?xml version="1.0" encoding="UTF-8" standalone="no"?>
<svg
   xmlns:dc="http://purl.org/dc/elements/1.1/"
   xmlns:cc="http://creativecommons.org/ns#"
   xmlns:rdf="http://www.w3.org/1999/02/22-rdf-syntax-ns#"
   xmlns:svg="http://www.w3.org/2000/svg"
   xmlns="http://www.w3.org/2000/svg"
   xmlns:sodipodi="http://sodipodi.sourceforge.net/DTD/sodipodi-0.dtd"
   xmlns:inkscape="http://www.inkscape.org/namespaces/inkscape"
   viewBox="0 0 34 40"
   width="34"
   height="40"
   version="1.1"
   id="svg24"
   sodipodi:docname="webpack.svg"
   inkscape:version="1.0.2-2 (e86c870879, 2021-01-15)">
  <metadata
     id="metadata30">
    <rdf:RDF>
      <cc:Work
         rdf:about="">
        <dc:format>image/svg+xml</dc:format>
        <dc:type
           rdf:resource="http://purl.org/dc/dcmitype/StillImage" />
      </cc:Work>
    </rdf:RDF>
  </metadata>
  <defs
     id="defs28" />
  <sodipodi:namedview
     pagecolor="#ffffff"
     bordercolor="#666666"
     borderopacity="1"
     objecttolerance="10"
     gridtolerance="10"
     guidetolerance="10"
     inkscape:pageopacity="0"
     inkscape:pageshadow="2"
     inkscape:window-width="1366"
     inkscape:window-height="705"
     id="namedview26"
     showgrid="false"
     inkscape:zoom="10.746341"
     inkscape:cx="17"
     inkscape:cy="20"
     inkscape:window-x="-8"
     inkscape:window-y="-8"
     inkscape:window-maximized="1"
     inkscape:current-layer="svg24" />
  <polygon
     fill="#eceff1"
     points="7,34 24,44 41,34 41,14 24,4 7,14 "
     id="polygon2"
     transform="translate(-7,-4)" />
  <polygon
     fill="#0277bd"
     points="15,29 15,19.5 23.5,24.5 23.5,33.5 "
     id="polygon4"
     transform="translate(-7,-4)" />
  <polygon
     fill="#0277bd"
     points="33,29 33,19.5 24.5,24.5 24.5,33.5 "
     id="polygon6"
     transform="translate(-7,-4)" />
  <polygon
     fill="#0277bd"
     points="24,14 32.5,18.5 24,23.5 15.5,18.5 "
     id="polygon8"
     transform="translate(-7,-4)" />
  <g
     id="g22"
     transform="translate(-7,-4)">
    <polygon
       fill="#81d4fa"
       points="14.5,18 9.5,15 23.5,7 23.5,13 "
       id="polygon10" />
    <polygon
       fill="#81d4fa"
       points="14.5,30 9.5,33 23.5,41 23.5,35 "
       id="polygon12" />
    <polygon
       fill="#81d4fa"
       points="9,32 14,29 14,19 9,16 "
       id="polygon14" />
    <polygon
       fill="#81d4fa"
       points="33.5,18 38.5,15 24.5,7 24.5,13 "
       id="polygon16" />
    <polygon
       fill="#81d4fa"
       points="33.5,30 38.5,33 24.5,41 24.5,35 "
       id="polygon18" />
    <polygon
       fill="#81d4fa"
       points="39,32 34,29 34,19 39,16 "
       id="polygon20" />
  </g>
</svg>
