<?xml version="1.0" encoding="UTF-8" standalone="no"?>
<svg
   xmlns:dc="http://purl.org/dc/elements/1.1/"
   xmlns:cc="http://creativecommons.org/ns#"
   xmlns:rdf="http://www.w3.org/1999/02/22-rdf-syntax-ns#"
   xmlns:svg="http://www.w3.org/2000/svg"
   xmlns="http://www.w3.org/2000/svg"
   xmlns:sodipodi="http://sodipodi.sourceforge.net/DTD/sodipodi-0.dtd"
   xmlns:inkscape="http://www.inkscape.org/namespaces/inkscape"
   viewBox="0 0 28.000505 15.746"
   version="1.1"
   id="svg6"
   sodipodi:docname="ejs.svg"
   width="28.000505"
   height="15.746"
   inkscape:version="1.0.2-2 (e86c870879, 2021-01-15)">
  <metadata
     id="metadata12">
    <rdf:RDF>
      <cc:Work
         rdf:about="">
        <dc:format>image/svg+xml</dc:format>
        <dc:type
           rdf:resource="http://purl.org/dc/dcmitype/StillImage" />
      </cc:Work>
    </rdf:RDF>
  </metadata>
  <defs
     id="defs10" />
  <sodipodi:namedview
     pagecolor="#ffffff"
     bordercolor="#666666"
     borderopacity="1"
     objecttolerance="10"
     gridtolerance="10"
     guidetolerance="10"
     inkscape:pageopacity="0"
     inkscape:pageshadow="2"
     inkscape:window-width="1366"
     inkscape:window-height="705"
     id="namedview8"
     showgrid="false"
     inkscape:zoom="16.119512"
     inkscape:cx="16"
     inkscape:cy="7.1883943"
     inkscape:window-x="-8"
     inkscape:window-y="-8"
     inkscape:window-maximized="1"
     inkscape:current-layer="svg6" />
  <title
     id="title2">file_type_ejs</title>
  <path
     d="M 0,9.544 V 6.2 L 11.86,0 v 3.072 l -8.76,4.739 8.762,4.835 v 3.1 z M 27.814,0.664 17.465,15.101 H 13.912 L 24.281,0.663 Z m -2.867,12.708 a 0.794,0.794 0 0 0 0.619,-0.278 1.061,1.061 0 0 0 0.248,-0.732 1.141,1.141 0 0 0 -0.248,-0.753 0.768,0.768 0 0 0 -1.217,0 1.141,1.141 0 0 0 -0.248,0.753 1.09,1.09 0 0 0 0.237,0.732 0.763,0.763 0 0 0 0.609,0.278 z m 2.186,1.042 a 3.237,3.237 0 0 1 -4.352,-0.01 2.864,2.864 0 0 1 0,-4.1 3.223,3.223 0 0 1 4.352,0 A 2.773,2.773 0 0 1 28,12.358 2.74,2.74 0 0 1 27.134,14.41 Z M 16.821,4.933 A 0.794,0.794 0 0 0 17.44,4.655 1.061,1.061 0 0 0 17.688,3.923 1.141,1.141 0 0 0 17.44,3.17 a 0.769,0.769 0 0 0 -1.217,0 1.141,1.141 0 0 0 -0.248,0.753 1.09,1.09 0 0 0 0.237,0.732 0.763,0.763 0 0 0 0.609,0.278 z m 2.186,1.039 a 3.237,3.237 0 0 1 -4.352,-0.01 2.864,2.864 0 0 1 0,-4.1 3.223,3.223 0 0 1 4.352,0 2.773,2.773 0 0 1 0.866,2.063 2.74,2.74 0 0 1 -0.866,2.047 z"
     style="fill:#90a93a"
     id="path4" />
</svg>
