<?xml version="1.0" encoding="UTF-8" standalone="no"?>
<svg
   xmlns:dc="http://purl.org/dc/elements/1.1/"
   xmlns:cc="http://creativecommons.org/ns#"
   xmlns:rdf="http://www.w3.org/1999/02/22-rdf-syntax-ns#"
   xmlns:svg="http://www.w3.org/2000/svg"
   xmlns="http://www.w3.org/2000/svg"
   xmlns:sodipodi="http://sodipodi.sourceforge.net/DTD/sodipodi-0.dtd"
   xmlns:inkscape="http://www.inkscape.org/namespaces/inkscape"
   width="2206.5095"
   height="2200"
   viewBox="0 0 225.94658 225.28941"
   preserveAspectRatio="xMinYMin meet"
   version="1.1"
   id="svg10"
   sodipodi:docname="react.svg"
   inkscape:version="1.0.2-2 (e86c870879, 2021-01-15)">
  <metadata
     id="metadata16">
    <rdf:RDF>
      <cc:Work
         rdf:about="">
        <dc:format>image/svg+xml</dc:format>
        <dc:type
           rdf:resource="http://purl.org/dc/dcmitype/StillImage" />
        <dc:title></dc:title>
      </cc:Work>
    </rdf:RDF>
  </metadata>
  <defs
     id="defs14" />
  <sodipodi:namedview
     pagecolor="#ffffff"
     bordercolor="#666666"
     borderopacity="1"
     objecttolerance="10"
     gridtolerance="10"
     guidetolerance="10"
     inkscape:pageopacity="0"
     inkscape:pageshadow="2"
     inkscape:window-width="1366"
     inkscape:window-height="705"
     id="namedview12"
     showgrid="false"
     inkscape:zoom="0.1668644"
     inkscape:cx="1155.7473"
     inkscape:cy="1336.2807"
     inkscape:window-x="-8"
     inkscape:window-y="-8"
     inkscape:window-maximized="1"
     inkscape:current-layer="svg10"
     inkscape:document-rotation="0"
     inkscape:pagecheckerboard="true" />
  <path
     d="m 112.70414,110.88715 c 0.008,0.004 0.006,0.0156 0.0109,0.0189 0.003,0.002 0.007,5.3e-4 0.0112,-0.003 0.004,0.003 0.008,0.005 0.0107,0.003 0.003,-0.002 0.004,-0.006 0.003,-0.0113 0.005,-0.002 0.008,-0.004 0.008,-0.008 0,-0.003 -0.003,-0.006 -0.008,-0.008 10e-4,-0.005 1.8e-4,-0.009 -0.003,-0.0112 -0.003,-0.002 -0.007,-1.8e-4 -0.0108,0.003 -0.004,-0.004 -0.011,0.0152 -0.0139,0.0169 -0.003,0.002 -7e-4,-0.0142 3.6e-4,-0.009 -0.005,0.002 -0.008,0.005 -0.008,0.008 z"
     fill="#ffffff"
     id="path2"
     sodipodi:nodetypes="cccccscccccc"
     style="stroke-width:0.000171699" />
  <path
     d="m 185.782,75.399953 c -2.40503,-0.824972 -4.83047,-1.589215 -7.274,-2.292 0.40523,-1.646594 0.77996,-3.300544 1.124,-4.961 5.506,-26.728 1.906,-48.26 -10.388,-55.348 -11.787,-6.797999 -31.065,0.29 -50.535,17.233 -1.91852,1.673343 -3.79445,3.394892 -5.626,5.163 -1.22654,-1.175687 -2.47475,-2.328551 -3.744,-3.458 -20.405,-18.118 -40.858,-25.751999 -53.139,-18.643 -11.776,6.817 -15.264,27.06 -10.307,52.39 0.493187,2.508409 1.050033,5.003881 1.67,7.484 -2.894,0.822 -5.689,1.698 -8.363,2.63 C 15.278,83.937953 0,97.00995 0,110.56795 c 0,14.004 16.4,28.05 41.318,36.566 2.020482,0.68733 4.057781,1.32419 6.11,1.91 -0.666698,2.67194 -1.258596,5.36199 -1.775,8.067 -4.726,24.89 -1.035,44.653 10.71,51.428 12.131,6.99501 32.491,-0.195 52.317,-17.525 1.567,-1.37 3.14,-2.823 4.715,-4.346 1.98382,1.91406 4.02061,3.77245 6.108,5.573 19.204,16.525 38.17,23.19801 49.905,16.405 12.12,-7.016 16.058,-28.247 10.944,-54.078 -0.39,-1.973 -0.845,-3.988 -1.355,-6.04 1.43,-0.422 2.833,-0.858 4.202,-1.312 25.904,-8.582 42.757,-22.457 42.757,-36.648 0,-13.607 -15.77,-26.766997 -40.174,-35.167997 z"
     fill="#53c1de"
     id="path4"
     sodipodi:nodetypes="cccccccccccscccccccccccsc" />
  <path
     d="m 180.163,138.05395 c -1.235,0.409 -2.503,0.804 -3.795,1.187 -2.86,-9.053 -6.72,-18.68 -11.442,-28.625 4.507,-9.71 8.217,-19.212997 10.997,-28.207997 2.311,0.67 4.555,1.375 6.717,2.12 20.91,7.197 33.664,17.839997 33.664,26.039997 0,8.735 -13.775,20.075 -36.14,27.486 z m -9.28,18.389 c 2.261,11.422 2.584,21.749 1.086,29.822 -1.346,7.254 -4.052,12.09 -7.398,14.027 -7.121,4.122 -22.35,-1.236 -38.772,-15.368 -1.883,-1.62 -3.78,-3.35 -5.682,-5.18 6.367,-6.964 12.73,-15.06 18.94,-24.05 10.924,-0.969 21.244,-2.554 30.603,-4.717 0.46,1.86 0.87,3.683 1.223,5.466 z m -93.85,43.137 c -6.957,2.457 -12.498,2.527 -15.847,0.596 -7.128,-4.11 -10.09,-19.98 -6.049,-41.265 0.48054,-2.51544 1.030752,-5.01707 1.65,-7.502 9.255,2.047 19.5,3.52 30.45,4.408 6.251,8.797 12.798,16.883 19.396,23.964 -1.40225,1.35646 -2.83769,2.6782 -4.305,3.964 -8.767,7.664 -17.552,13.1 -25.294,15.835 z m -32.593,-61.58 c -11.018,-3.766 -20.117,-8.66 -26.354,-14 -5.604,-4.8 -8.434,-9.565 -8.434,-13.432 0,-8.227 12.267,-18.721997 32.726,-25.854997 2.567899,-0.891383 5.161343,-1.707399 7.777,-2.447 2.828,9.197 6.537,18.812997 11.013,28.536997 -4.534,9.869 -8.296,19.638 -11.15,28.943 -1.873359,-0.53621 -3.733254,-1.11838 -5.578,-1.746 z M 55.366,63.629953 c -4.247,-21.703 -1.427,-38.074 5.67,-42.182 7.56,-4.376 24.275,1.864 41.893,17.507 1.126,1 2.257,2.047 3.39,3.13 -6.564,7.049 -13.051,15.074 -19.248,23.82 -10.627,0.985 -20.8,2.567 -30.152,4.686 -0.576077,-2.30725 -1.093908,-4.628654 -1.553,-6.962 z m 97.467,24.067 c -2.20892,-3.81557 -4.49979,-7.583111 -6.871,-11.3 7.21,0.91 14.117,2.12 20.603,3.601 -1.947,6.241 -4.374,12.767 -7.232,19.456997 -2.08818,-3.962209 -4.25528,-7.882323 -6.5,-11.757997 z m -39.747,-38.714 c 4.452,4.823 8.911,10.209 13.297,16.052 -8.89699,-0.42042 -17.80882,-0.422422 -26.706,-0.006 4.39,-5.789 8.887,-11.167 13.409,-16.046 z m -40.002,38.78 c -2.216614,3.844851 -4.343193,7.740911 -6.378,11.684997 -2.811,-6.666997 -5.216,-13.221997 -7.18,-19.551997 6.447,-1.443 13.322,-2.622 20.485,-3.517 -2.397787,3.739924 -4.707423,7.535637 -6.927,11.384 z m 7.133,57.682997 c -7.4,-0.826 -14.379,-1.945 -20.824,-3.348 1.995,-6.442 4.453,-13.138 7.324,-19.948 2.043385,3.94701 4.179309,7.84542 6.406,11.692 2.272111,3.92383 4.63745,7.79293 7.094,11.604 z m 33.136,27.389 c -4.575,-4.937 -9.138,-10.397 -13.595,-16.27 4.326,0.17 8.737,0.256 13.22,0.256 4.606,0 9.159,-0.103 13.64,-0.303 -4.4,5.98 -8.843,11.448 -13.265,16.317 z m 46.072,-51.032 c 3.02,6.884 5.566,13.544 7.588,19.877 -6.552,1.495 -13.625,2.699 -21.078,3.593 2.38835,-3.78629 4.70114,-7.61971 6.937,-11.498 2.27289,-3.94155 4.45776,-7.93321 6.553,-11.972 z m -14.915,7.15 c -3.4228,5.94596 -7.03804,11.77904 -10.84,17.49 -6.704,0.479 -13.632,0.726 -20.692,0.726 -7.031,0 -13.871,-0.219 -20.458,-0.646 -3.90056,-5.69766 -7.584197,-11.54084 -11.043,-17.517 -3.442636,-5.94445 -6.658286,-12.01749 -9.64,-18.206 2.97413,-6.19036 6.180063,-12.26665 9.611,-18.215997 v 0.002 c 3.42986,-5.95061 7.08449,-11.768804 10.956,-17.442 6.72,-0.508 13.61,-0.774 20.575,-0.774 6.996,0 13.895,0.268 20.613,0.78 3.83235,5.664466 7.46361,11.462407 10.887,17.383 3.44273,5.936107 6.69145,11.982637 9.741,18.129997 -3.01818,6.20999 -6.25656,12.31053 -9.709,18.29 z M 164.423,21.160953 c 7.566,4.364 10.509,21.961 5.755,45.038 -0.3116,1.503327 -0.65032,3.000905 -1.016,4.492 -9.374,-2.163 -19.554,-3.773 -30.212,-4.773 -6.209,-8.841 -12.642,-16.88 -19.1,-23.838 1.69226,-1.631452 3.4248,-3.220609 5.196,-4.766 16.682,-14.518 32.273,-20.25 39.377,-16.153 z"
     fill="#ffffff"
     id="path6"
     inkscape:transform-center-x="-31.158834"
     inkscape:transform-center-y="17.672174"
     sodipodi:nodetypes="cccccscccscccccccccccccccccsccccccscccccccccccccccccccccccccccscccccccccsccccccscccccccccccc" />
  <path
     d="m 112.978,90.390953 c 11.144,0 20.177,9.033997 20.177,20.176997 0,11.144 -9.033,20.178 -20.177,20.178 -11.143,0 -20.177,-9.034 -20.177,-20.178 0,-11.143 9.034,-20.176997 20.177,-20.176997"
     fill="#53c1de"
     id="path8"
     sodipodi:nodetypes="csssc" />
</svg>
